<svg xmlns="http://www.w3.org/2000/svg" class="icon icon-tabler icon-tabler-key" viewBox="0 0 30 30">
  <defs>
    <linearGradient id="bg-gradient" x1="0%" y1="0%" x2="0%" y2="100%">
      <stop offset="0%" stop-color="#ff0080" />
      <stop offset="100%" stop-color="#683bab" />
    </linearGradient>
  </defs>
  <rect
    class="shadow"
    fill="url(#bg-gradient)"
    width="100%"
    height="100%"
    rx="15%"
    opacity="0.9"
  />
  <!-- <g transform="translate(3,3)">
    <path d="m16.555 3.843 3.602 3.602a2.877 2.877 0 0 1 0 4.069l-2.643 2.643a2.877 2.877 0 0 1-4.069 0l-.301-.301-6.558 6.558a2 2 0 0 1-1.239.578L5.172 21H4a1 1 0 0 1-.993-.883L3 20v-1.172a2 2 0 0 1 .467-1.284l.119-.13L4 17h2v-2h2v-2l2.144-2.144-.301-.301a2.877 2.877 0 0 1 0-4.069l2.643-2.643a2.877 2.877 0 0 1 4.069 0zM15 9h.01"/>
  </g> -->
  <g transform="translate(3,3)">
    <path d="M12 2c5.523 0 10 4.477 10 10a10 10 0 0 1-20 0C2 6.477 6.477 2 12 2zm2 5a3 3 0 0 0-2.98 2.65l-.015.174L11 10l.005.176c.019.319.087.624.197.908l.09.209-3.5 3.5-.082.094a1 1 0 0 0 0 1.226l.083.094 1.5 1.5.094.083a1 1 0 0 0 1.226 0l.094-.083.083-.094a1 1 0 0 0 0-1.226l-.083-.094-.792-.793.585-.585.793.792.094.083a1 1 0 0 0 1.403-1.403l-.083-.094-.792-.793.792-.792A3 3 0 1 0 14 7zm0 2a1 1 0 1 1 0 2 1 1 0 0 1 0-2z" fill="#fff" stroke="none"/>
  </g>
</svg>
