<svg fill="none" xmlns="http://www.w3.org/2000/svg" viewBox="0 0 335 140"><g clip-path="url(#a)"><path d="M30.73.15 0 2.95l3.67 40.21 20.03-1.83-1.99-21.86 10.71-.98c10.61-.97 19.14 7.53 20.29 20.19l19.67-1.79C70.34 14.72 51.64-1.75 30.73.15Zm42.88 49.36c0 12.72-7.73 21.95-18.37 21.95H44.49V49.47H24.38v40.42h30.86c21.02 0 38.12-18.11 38.12-40.38v-.04H73.61v.04Z" fill="#FF0082"/><path d="M131.65 23.71h20.01c14.41 0 24.29 9.09 24.29 23.06 0 13.97-9.88 23.06-24.29 23.06h-20.01V23.71Zm19.51 37.35c8.75 0 14.47-5.47 14.47-14.29s-5.73-14.29-14.47-14.29h-9.31v28.59h9.31v-.01Zm56.45-2.37 5.22 5.93c-3.15 3.75-7.87 5.73-13.97 5.73-11.7 0-19.32-7.71-19.32-18.25s7.68-18.25 18.12-18.25c9.56 0 17.43 6.59 17.49 17.92l-25.04 5.07c1.45 3.49 4.59 5.27 9 5.27 3.59 0 6.17-1.12 8.5-3.43v.01Zm-18.44-7.64 16.49-3.36c-.94-3.62-3.9-6.06-7.99-6.06-4.91 0-8.31 3.43-8.5 9.42Zm29.08 1.05c0-10.67 7.87-18.25 18.88-18.25 7.11 0 12.71 3.23 15.17 9.02l-7.61 4.28c-1.83-3.36-4.53-4.87-7.61-4.87-4.97 0-8.87 3.62-8.87 9.81s3.9 9.81 8.87 9.81c3.08 0 5.79-1.45 7.61-4.87l7.61 4.35c-2.45 5.67-8.05 8.96-15.17 8.96-11.01 0-18.88-7.58-18.88-18.25v.01Zm72.68-17.72v35.44h-9.38v-4.08c-2.45 3.1-6.04 4.61-10.57 4.61-9.57 0-16.93-7.11-16.93-18.25s7.36-18.25 16.93-18.25c4.15 0 7.68 1.38 10.13 4.28v-3.75h9.82ZM281.3 52.1c0-6.13-3.78-9.81-8.62-9.81S264 45.98 264 52.1c0 6.12 3.78 9.81 8.68 9.81s8.62-3.69 8.62-9.81Zm53.24 0c0 11.13-7.36 18.25-16.86 18.25-4.22 0-7.68-1.38-10.19-4.28V82.6h-9.82V34.38h9.38v4.08c2.45-3.1 6.1-4.61 10.63-4.61 9.5 0 16.86 7.11 16.86 18.25Zm-9.94 0c0-6.13-3.71-9.81-8.62-9.81-4.91 0-8.62 3.69-8.62 9.81 0 6.12 3.71 9.81 8.62 9.81 4.91 0 8.62-3.69 8.62-9.81ZM179.447 92l-2.716-7.532h2.058l2.254 6.482h-.98l2.352-6.482h1.848l2.282 6.482h-.98l2.324-6.482h1.932L187.091 92h-2.114l-2.002-5.558h.644L181.547 92h-2.1Zm11.389 0v-7.532h2.184V92h-2.184Zm1.092-8.582c-.401 0-.728-.117-.98-.35a1.135 1.135 0 0 1-.378-.868c0-.345.126-.635.378-.868.252-.233.579-.35.98-.35s.728.112.98.336c.252.215.378.495.378.84 0 .364-.126.667-.378.91-.243.233-.569.35-.98.35Zm6.199 8.694c-.887 0-1.577-.224-2.072-.672-.495-.457-.742-1.134-.742-2.03v-6.608h2.184v6.58c0 .317.084.565.252.742.168.168.397.252.686.252.345 0 .639-.093.882-.28l.588 1.54a2.5 2.5 0 0 1-.812.364c-.308.075-.63.112-.966.112Zm-3.976-5.796v-1.68h5.222v1.68h-5.222Zm11.558-1.96c.597 0 1.129.121 1.596.364a2.53 2.53 0 0 1 1.12 1.092c.271.485.406 1.11.406 1.876V92h-2.184v-3.976c0-.607-.135-1.055-.406-1.344-.261-.29-.635-.434-1.12-.434-.345 0-.658.075-.938.224-.271.14-.485.36-.644.658-.149.299-.224.681-.224 1.148V92h-2.184V81.612h2.184v4.942l-.49-.63a2.792 2.792 0 0 1 1.162-1.162c.504-.27 1.078-.406 1.722-.406ZM214.93 92v-9.8h4.788c1.232 0 2.156.233 2.772.7.625.467.938 1.083.938 1.848 0 .513-.126.961-.378 1.344a2.499 2.499 0 0 1-1.036.868c-.439.205-.943.308-1.512.308l.266-.574c.616 0 1.162.103 1.638.308.476.196.844.49 1.106.882.27.392.406.873.406 1.442 0 .84-.332 1.498-.994 1.974-.663.467-1.638.7-2.926.7h-5.068Zm2.254-1.708h2.646c.588 0 1.031-.093 1.33-.28.308-.196.462-.504.462-.924 0-.41-.154-.714-.462-.91-.299-.205-.742-.308-1.33-.308h-2.814v-1.652h2.422c.55 0 .97-.093 1.26-.28.298-.196.448-.49.448-.882 0-.383-.15-.667-.448-.854-.29-.196-.71-.294-1.26-.294h-2.254v6.384ZM225.481 92v-7.532h2.086v2.128l-.294-.616a2.385 2.385 0 0 1 1.078-1.204c.494-.28 1.096-.42 1.806-.42v2.016a2.589 2.589 0 0 0-.252-.014 1.931 1.931 0 0 0-.238-.014c-.598 0-1.083.173-1.456.518-.364.336-.546.863-.546 1.582V92h-2.184Zm5.988 0v-7.532h2.184V92h-2.184Zm1.092-8.582c-.401 0-.728-.117-.98-.35a1.135 1.135 0 0 1-.378-.868c0-.345.126-.635.378-.868.252-.233.579-.35.98-.35s.728.112.98.336c.252.215.378.495.378.84 0 .364-.126.667-.378.91-.243.233-.569.35-.98.35Zm6.353 8.694c-.709 0-1.349-.159-1.918-.476a3.65 3.65 0 0 1-1.358-1.358c-.327-.579-.49-1.26-.49-2.044 0-.793.163-1.48.49-2.058a3.545 3.545 0 0 1 1.358-1.344c.569-.317 1.209-.476 1.918-.476.635 0 1.19.14 1.666.42.476.28.845.705 1.106 1.274.261.57.392 1.297.392 2.184 0 .877-.126 1.605-.378 2.184-.252.57-.616.994-1.092 1.274-.467.28-1.031.42-1.694.42Zm.378-1.792c.355 0 .677-.084.966-.252.289-.168.518-.406.686-.714.177-.317.266-.69.266-1.12 0-.439-.089-.812-.266-1.12a1.808 1.808 0 0 0-.686-.714 1.887 1.887 0 0 0-.966-.252c-.364 0-.691.084-.98.252a1.905 1.905 0 0 0-.7.714c-.168.308-.252.681-.252 1.12 0 .43.084.803.252 1.12.177.308.411.546.7.714.289.168.616.252.98.252Zm1.974 1.68v-1.54l.042-2.24-.14-2.226v-4.382h2.184V92h-2.086Zm7.649 2.828a7.932 7.932 0 0 1-2.058-.266c-.653-.168-1.199-.425-1.638-.77l.868-1.568c.318.261.719.467 1.204.616.495.159.98.238 1.456.238.775 0 1.335-.173 1.68-.518.355-.345.532-.859.532-1.54v-1.134l.14-1.89-.028-1.904v-1.624h2.072v6.272c0 1.4-.364 2.431-1.092 3.094-.728.663-1.773.994-3.136.994Zm-.336-3.192c-.7 0-1.334-.15-1.904-.448a3.71 3.71 0 0 1-1.358-1.274c-.336-.55-.504-1.19-.504-1.918 0-.737.168-1.377.504-1.918.346-.55.798-.975 1.358-1.274a4.037 4.037 0 0 1 1.904-.448c.635 0 1.195.13 1.68.392.486.252.864.649 1.134 1.19.271.532.406 1.218.406 2.058 0 .83-.135 1.517-.406 2.058-.27.532-.648.929-1.134 1.19-.485.261-1.045.392-1.68.392Zm.434-1.792c.383 0 .724-.075 1.022-.224a1.76 1.76 0 0 0 .7-.658 1.84 1.84 0 0 0 .252-.966c0-.373-.084-.695-.252-.966a1.666 1.666 0 0 0-.7-.644 2.142 2.142 0 0 0-1.022-.238c-.382 0-.723.08-1.022.238a1.77 1.77 0 0 0-.714.644c-.168.27-.252.593-.252.966 0 .364.084.686.252.966.178.28.416.5.714.658.299.15.64.224 1.022.224Zm9.901 2.268c-.859 0-1.615-.168-2.268-.504a3.745 3.745 0 0 1-1.498-1.372c-.355-.588-.532-1.255-.532-2.002 0-.756.173-1.423.518-2.002a3.706 3.706 0 0 1 1.442-1.372c.607-.336 1.293-.504 2.058-.504.737 0 1.4.159 1.988.476a3.44 3.44 0 0 1 1.414 1.344c.345.579.518 1.274.518 2.086 0 .084-.005.182-.014.294l-.028.294h-6.118v-1.274h4.97l-.84.378c0-.392-.079-.733-.238-1.022a1.691 1.691 0 0 0-.658-.672 1.869 1.869 0 0 0-.98-.252c-.373 0-.705.084-.994.252-.28.159-.499.387-.658.686-.159.29-.238.635-.238 1.036v.336c0 .41.089.775.266 1.092.187.308.443.546.77.714.336.159.728.238 1.176.238.401 0 .751-.06 1.05-.182.308-.121.588-.303.84-.546l1.162 1.26a3.446 3.446 0 0 1-1.302.91c-.523.205-1.125.308-1.806.308Z" fill="#000"/><g clip-path="url(#b)"><path opacity=".9" d="M285.7 76h-15.4a3.3 3.3 0 0 0-3.3 3.3v15.4a3.3 3.3 0 0 0 3.3 3.3h15.4a3.3 3.3 0 0 0 3.3-3.3V79.3a3.3 3.3 0 0 0-3.3-3.3Z" fill="url(#c)"/><path d="M278 79.667a7.333 7.333 0 1 1 0 14.666 7.333 7.333 0 0 1 0-14.666Zm1.467 3.666a2.203 2.203 0 0 0-2.186 1.944l-.011.127-.003.13.003.128c.014.234.064.458.145.666l.066.153-2.567 2.567-.06.07a.732.732 0 0 0 0 .898l.061.07 1.1 1.1.069.06a.732.732 0 0 0 .899 0l.069-.06.061-.07a.738.738 0 0 0 0-.899l-.061-.069-.581-.581.429-.43.582.582.068.06a.736.736 0 0 0 .968-.06.734.734 0 0 0 .061-.968l-.061-.07-.58-.581.58-.58a2.204 2.204 0 0 0 2.67-.619 2.192 2.192 0 0 0 .422-1.86 2.202 2.202 0 0 0-2.143-1.708Zm0 1.467a.732.732 0 1 1 0 1.464.732.732 0 0 1 0-1.464Z" fill="#fff"/></g></g><defs><clipPath id="a"><path fill="#fff" d="M0 0h335v140H0z"/></clipPath><clipPath id="b"><path fill="#fff" d="M267 76h22v22h-22z"/></clipPath><linearGradient id="c" x1="267" y1="76" x2="267" y2="98" gradientUnits="userSpaceOnUse"><stop stop-color="#FF0080"/><stop offset="1" stop-color="#683BAB"/></linearGradient></defs></svg>